HIERARCHY
ROOT Hips
{
	OFFSET 0.000000 0.000000 0.000000
	CHANNELS 6 Xposition Yposition Zposition Yrotation Xrotation Zrotation
	JOINT Chest
	{
		OFFSET 0.000000 -0.009281 11.569106
		CHANNELS 3 Yrotation Xrotation Zrotation
		JOINT Chest2
		{
			OFFSET -0.000000 0.016865 9.269641
			CHANNELS 3 Yrotation Xrotation Zrotation
			JOINT Chest3
			{
				OFFSET -0.000000 0.000001 8.374491
				CHANNELS 3 Yrotation Xrotation Zrotation
				JOINT Chest4
				{
					OFFSET -0.000000 0.000001 8.374493
					CHANNELS 3 Yrotation Xrotation Zrotation
					JOINT Neck
					{
						OFFSET -0.000000 0.000002 12.152554
						CHANNELS 3 Yrotation Xrotation Zrotation
						JOINT Head
						{
							OFFSET -0.000000 0.040101 7.802319
							CHANNELS 3 Yrotation Xrotation Zrotation
							End Site
							{
								OFFSET -0.000000 0.020947 14.853096
							}
						}
					}
					JOINT RightCollar
					{
						OFFSET 2.894404 0.000001 6.791374
						CHANNELS 3 Yrotation Xrotation Zrotation
						JOINT RightShoulder
						{
							OFFSET 13.574684 0.000001 0.000000
							CHANNELS 3 Yrotation Xrotation Zrotation
							JOINT RightElbow
							{
								OFFSET 23.923903 0.000002 0.000000
								CHANNELS 3 Yrotation Xrotation Zrotation
								JOINT RightWrist
								{
									OFFSET 19.846718 0.012767 0.000000
									CHANNELS 3 Yrotation Xrotation Zrotation
									End Site
									{
										OFFSET 14.973145 0.000001 0.000000
									}
								}
							}
						}
					}
					JOINT LeftCollar
					{
						OFFSET -2.894404 0.000001 6.791374
						CHANNELS 3 Yrotation Xrotation Zrotation
						JOINT LeftShoulder
						{
							OFFSET -13.574684 -0.000001 0.000000
							CHANNELS 3 Yrotation Xrotation Zrotation
							JOINT LeftElbow
							{
								OFFSET -23.923903 -0.000002 0.000000
								CHANNELS 3 Yrotation Xrotation Zrotation
								JOINT LeftWrist
								{
									OFFSET -19.846718 0.012763 0.000000
									CHANNELS 3 Yrotation Xrotation Zrotation
									End Site
									{
										OFFSET -14.973145 -0.000001 0.000000
									}
								}
							}
						}
					}
				}
			}
		}
	}
	JOINT RightHip
	{
		OFFSET 9.469263 0.004643 0.045487
		CHANNELS 3 Yrotation Xrotation Zrotation
		JOINT RightKnee
		{
			OFFSET 0.000000 0.002661 -40.478676
			CHANNELS 3 Yrotation Xrotation Zrotation
			JOINT RightAnkle
			{
				OFFSET 0.000000 0.049106 -35.224068
				CHANNELS 3 Yrotation Xrotation Zrotation
				JOINT RightToe
				{
					OFFSET -0.000001 12.539529 -6.151390
					CHANNELS 3 Yrotation Xrotation Zrotation
					End Site
					{
						OFFSET -0.000001 5.044994 -1.291870
					}
				}
			}
		}
	}
	JOINT LeftHip
	{
		OFFSET -9.469263 0.004641 0.045487
		CHANNELS 3 Yrotation Xrotation Zrotation
		JOINT LeftKnee
		{
			OFFSET 0.000000 0.002661 -40.478676
			CHANNELS 3 Yrotation Xrotation Zrotation
			JOINT LeftAnkle
			{
				OFFSET 0.000000 0.049106 -35.224068
				CHANNELS 3 Yrotation Xrotation Zrotation
				JOINT LeftToe
				{
					OFFSET -0.000001 12.539529 -6.151390
					CHANNELS 3 Yrotation Xrotation Zrotation
					End Site
					{
						OFFSET -0.000001 5.044994 -1.291870
					}
				}
			}
		}
	}
}
MOTION
Frames: 5
Frame Time: 0.016667
9.153676 7.307046 83.164131 -5.586963 -1.827709 -110.066408 -0.235479 -2.403097 1.271521 -0.097974 -1.067418 0.562086 -0.097974 -1.067418 0.562085 -0.072497 -0.800654 0.421380 1.039930 -24.276195 -1.935168 1.381026 -8.894170 -3.211199 11.700043 0.713859 -2.056505 65.101306 14.235613 -2.216483 14.443034 -5.173098 10.795245 -65.887406 38.794918 14.851451 -9.983381 1.820191 -0.761349 -65.626793 10.816391 2.368682 -12.159690 -5.301828 -7.481869 58.540943 36.139316 -10.236285 -0.786875 -4.611945 -2.502157 1.783689 -5.230917 -5.821767 -1.143874 3.410304 2.050558 0.002530 -0.015638 -0.001889 -0.960731 -5.907830 -0.356961 0.087679 -3.636193 2.143189 1.546708 3.670471 2.124562 -0.066291 -0.014127 -0.000008 
9.182132 7.283567 83.164635 -5.554091 -1.818258 -110.020059 -0.261486 -2.396111 1.273982 -0.109306 -1.064064 0.562576 -0.109306 -1.064064 0.562574 -0.080998 -0.798149 0.421731 1.049817 -24.113004 -1.981516 1.383980 -8.591220 -3.291482 11.719912 0.844793 -1.929412 63.089754 11.998499 -3.088199 16.791248 -7.138337 10.641880 -65.185297 38.051165 13.014884 -9.967428 2.032647 -0.977261 -64.165536 9.720397 3.346683 -13.712487 -7.675282 -7.367897 57.580414 35.751427 -9.580373 -0.771397 -4.632683 -2.531886 1.783157 -5.182175 -5.802466 -1.141999 3.413817 2.010926 -0.004746 -0.012124 -0.002514 -0.942548 -5.901336 -0.313201 0.091615 -3.624219 2.083874 1.547347 3.689983 2.069997 -0.062424 -0.016458 0.000823 
9.212908 7.256589 83.164703 -5.526902 -1.809725 -109.962439 -0.283855 -2.387270 1.273017 -0.119778 -1.060106 0.561697 -0.119778 -1.060107 0.561699 -0.088857 -0.795191 0.421052 1.044223 -23.949456 -2.026018 1.359437 -8.287898 -3.372469 11.714285 0.923565 -1.838804 61.378006 9.665751 -3.889738 19.081904 -8.663549 10.963965 -64.226946 37.215235 11.186279 -9.966967 2.236659 -1.235269 -62.721764 8.577048 4.246476 -15.334051 -9.865557 -7.295872 56.862715 35.461290 -8.783221 -0.753575 -4.667575 -2.554084 1.779180 -5.123044 -5.795769 -1.140433 3.414602 1.999640 -0.008504 -0.008385 -0.002187 -0.929194 -5.906549 -0.292712 0.100177 -3.603848 2.040618 1.545637 3.706839 2.058088 -0.057927 -0.018628 0.001961 
9.245623 7.232064 83.164330 -5.499731 -1.795514 -109.896555 -0.307819 -2.371018 1.263023 -0.130804 -1.053263 0.556919 -0.130804 -1.053262 0.556917 -0.097140 -0.790067 0.417452 1.023850 -23.784136 -2.063730 1.309858 -7.981561 -3.445181 11.696252 0.947655 -1.744686 59.808709 7.431209 -4.626178 21.454878 -9.885276 11.598828 -63.194836 36.356605 9.349773 -9.945059 2.318449 -1.464688 -61.254632 7.365912 5.003036 -17.173698 -11.838337 -7.306673 56.408705 35.354415 -7.846805 -0.736338 -4.699736 -2.567765 1.773699 -5.067769 -5.807365 -1.145041 3.420139 1.962290 -0.006878 -0.006217 -0.001398 -0.923045 -5.907701 -0.314604 0.112008 -3.584913 2.032407 1.538912 3.721324 2.040521 -0.052676 -0.019223 0.001321 
9.278089 7.207644 83.163834 -5.474620 -1.780855 -109.833731 -0.338508 -2.361099 1.260219 -0.145074 -1.049211 0.555125 -0.145074 -1.049211 0.555128 -0.107849 -0.787041 0.416084 1.003873 -23.604575 -2.104222 1.259791 -7.648854 -3.522971 11.692089 1.013334 -1.651808 58.172318 5.415588 -5.378733 24.025173 -11.051868 12.438633 -62.133951 35.451813 7.498982 -9.916557 2.368324 -1.739627 -59.709124 6.123610 5.702803 -19.261977 -13.611015 -7.412218 56.049666 35.410050 -6.804646 -0.720477 -4.736875 -2.556828 1.767721 -5.003503 -5.836569 -1.155866 3.420729 1.925712 0.000888 -0.004826 0.000061 -0.916877 -5.912870 -0.342826 0.115254 -3.562850 2.020025 1.538387 3.736217 2.036554 -0.047542 -0.020853 0.000394 
